<?xml version="1.0" encoding="UTF-8"?>
<!DOCTYPE svg PUBLIC "-//W3C//DTD SVG 1.1//EN" "http://www.w3.org/Graphics/SVG/1.1/DTD/svg11.dtd">
<svg xmlns="http://www.w3.org/2000/svg" viewBox="0 0 1004.5 344.3">
  <g fill="none" stroke="#010202" stroke-width="6" stroke-miterlimit="10" stroke-linecap="round" stroke-linejoin="round">
    <path d="M322.7 86.5c-7.3-3.5-188.4 240.8-168.4 255 13.4 9.5 153-256.7 158-254.6 12 5.2-300 80-309.6 65s401-81 410.6-75c-66 0-130 123.5-103.6 125C345.3 204 416 83 422.3 86.4c6 3.3-93 118.7-60 118.7 21 0 133-122.7 125.4-127.7-13-8.5-94.4 119.3-71.4 119.3S630 2.4 598.7 2.4 396 286.4 423 286.4s118.3-172.2 155.3-151c-38.3 0-112.3 126.8-67 126.8 30 0 96.4-104.4 73.4-118.4-7.5-4.5-13 7.6-7.4 11.4 16.7 11 56.7-22.4 59.4-20 5 4.3-75.4 121-59.7 121s55-134 86.7-120c16 7 19.6 18.2 51.2 17.8 51-.7 204-19.4 287-77.2"/>
    <path d="M504.2 50.3c6.5 6.4-6.7 17-11.2 13s5.8-18 11.2-13z"/>
  </g>
</svg>
