<?xml version="1.0" encoding="utf-8"?>
<!DOCTYPE svg PUBLIC "-//W3C//DTD SVG 1.1//EN" "http://www.w3.org/Graphics/SVG/1.1/DTD/svg11.dtd">
<svg version="1.1" xmlns="http://www.w3.org/2000/svg" xmlns:xlink="http://www.w3.org/1999/xlink"
	 width="500px" height="200px" viewBox="0 0 500 200">
		<path fill="#030405" d="M61.915,200c-1.548,0-2.689-0.795-3.131-2.183c-0.747-2.344-3.018-9.475,47.497-79.405
			c7.598-10.518,15.338-20.991,22.462-30.489c5.277-9.31,9.899-17.421,13.649-23.82c2.513-4.288,4.439-7.472,5.871-9.705
			c-11.398,3.841-39.671,12.17-67.273,19.289C34.762,85.609,8.257,89.861,2.209,86.323c-1.172-0.686-1.817-1.728-1.817-2.934
			c0-2.244,2.295-4.986,18.95-9.81C42.529,66.863,88,58.091,132.491,51.751c21.577-3.075,40.346-5.208,54.279-6.171
			c24.227-1.673,25.774,0.772,26.518,1.948c0.283,0.448,0.3,1.014,0.045,1.478c-0.256,0.464-0.744,0.752-1.273,0.752
			c-20.324,0-36.387,15.765-44.152,25.163c-11.772,14.245-18.124,29.736-18.124,37.079c0,1.444,0.243,2.569,0.703,3.252
			c0.387,0.576,0.923,0.833,1.738,0.833c13.065,0,36.324-31.312,50.22-50.02c11.573-15.58,13.809-18.255,15.99-17.045
			c0.436,0.242,0.738,0.652,0.851,1.152c0.421,1.867-2.106,5.674-12.246,19.871c-10.264,14.372-29.369,41.124-26.402,46.89
			c0.126,0.245,0.461,0.896,2.207,0.896c4.347,0,19.252-12.451,37.476-31.238c1.581-2.841,3.071-5.369,4.218-7.268
			c7.818-12.946,18.828-28.443,25.804-33.877c0.972-0.757,3.931-3.063,6.166-1.605c0.478,0.312,1.206,1.084,0.708,2.76
			c-1.646,5.535-18.535,25.129-33.591,40.756c-0.305,0.317-0.624,0.646-0.955,0.988c-8.136,14.673-10.054,22.229-9.154,24.26
			c0.083,0.187,0.168,0.38,0.724,0.38c3.306,0,17.946-10.418,42.814-33.081c1.5-2.322,3.003-4.623,4.508-6.896
			C272.892,55.88,311.08,0,326.789,0c1.009,0,1.82,0.266,2.412,0.792c0.437,0.387,0.956,1.104,0.956,2.321
			c0,10.318-44.168,53.412-53.022,61.945c-5.117,4.933-11.31,10.76-17.806,16.675c-24.256,37.522-42.014,71.876-42.014,81.645
			c0,1.01,0.206,1.418,0.294,1.548c0.056,0.079,0.131,0.189,0.507,0.189c4.128,0,16.444-16.54,27.31-31.132
			c10.423-13.997,22.236-29.861,33.328-41.243c13.236-13.583,23.214-18.316,30.496-14.47c0.591,0.312,0.893,0.986,0.732,1.635
			c-0.161,0.648-0.742,1.104-1.411,1.104c-8.982,0-20.562,8.721-30.977,23.329c-9.518,13.35-15.912,28.645-15.912,38.061
			c0,2.804,0.562,4.947,1.671,6.37c1.136,1.458,2.851,2.167,5.242,2.167c7.311,0,18.181-9.478,29.077-25.353
			c8.067-11.754,14.292-24.512,16.147-32.68c-2.537,0.188-4.861-0.211-6.776-1.475c-1.771-1.17-2.522-3.063-1.958-4.942
			c0.764-2.54,3.651-4.314,7.021-4.314c2.188,0,3.396,1.046,4.023,1.924c0.773,1.082,1.167,2.592,1.167,4.489
			c0,0.247-0.007,0.501-0.021,0.764c6.134-1.696,13.315-6.043,17.938-8.841c5.232-3.167,6.81-4.125,8.081-3.015
			c1.844,1.613,0.156,5.101-13.897,28.713c-5.189,8.72-11.072,18.604-15.305,26.534c-5.535,10.371-6.224,13.653-6.192,14.666
			c0.619-0.286,2.301-1.61,5.795-7.681c2.959-5.142,6.409-12.208,10.063-19.689c10.162-20.81,20.67-42.328,29.715-43.839
			c2.044-0.34,3.977,0.331,5.59,1.945c8.473,8.473,24.308,10.658,48.409,6.68c22.575-3.726,52.062-12.863,90.145-27.933
			c0.747-0.294,1.592,0.07,1.887,0.817s-0.07,1.591-0.816,1.887c-50.74,20.079-87.452,29.993-111.853,29.995
			c-13.746,0-23.581-3.144-29.826-9.39c-0.961-0.961-1.933-1.321-3.056-1.133c-7.568,1.264-19.136,24.952-27.583,42.247
			c-9.331,19.108-14.401,29.08-18.722,29.08c-0.971,0-1.785-0.452-2.233-1.242c-2.086-3.668,4.626-16.102,21.484-44.429
			c5.519-9.27,11.651-19.576,13.535-23.922c-1.07,0.597-2.44,1.426-3.715,2.197c-5.354,3.24-13.04,7.892-19.841,9.435
			c-1.654,8.615-8.105,22.117-16.811,34.799c-5.493,8.003-19.556,26.616-31.475,26.616c-3.301,0-5.836-1.105-7.535-3.286
			c-1.516-1.947-2.285-4.69-2.285-8.157c0-9.972,6.611-25.945,16.452-39.748c4.265-5.981,8.679-10.984,13.071-14.88
			c-13.016,10.983-28.215,31.396-40.541,47.949c-15.362,20.631-24.313,32.305-29.642,32.305c-1.574,0-2.447-0.79-2.902-1.452
			c-0.542-0.788-0.806-1.832-0.806-3.193c0-10.692,17.268-43.137,36.89-74.432c-16.014,14.168-31.989,26.945-37.058,26.945
			c-1.7,0-2.982-0.896-3.519-2.458c-1.2-3.493,1.507-10.813,5.021-18.082c-11.14,11.035-26.8,25.386-32.898,25.386
			c-2.909,0-4.211-1.344-4.792-2.473c-3.501-6.803,9.396-25.792,26.621-49.91c1.904-2.667,3.897-5.458,5.691-8.026
			c-1.77,2.331-3.689,4.915-5.588,7.47c-15.142,20.386-38.026,51.194-52.553,51.194c-1.783,0-3.218-0.733-4.15-2.118
			c-0.795-1.181-1.197-2.822-1.197-4.875c0-8.047,6.454-24.003,18.79-38.93c6.854-8.294,19.946-21.347,36.865-25.147
			c-7.407-0.114-20.366,0.591-41.458,3.04c-0.09,0.173-0.216,0.331-0.377,0.46c-1.208,1.168-13.649,16.966-29.529,38.121
			c-1.834,3.236-3.712,6.556-5.606,9.903c-12.333,21.795-26.311,46.499-38.133,66.09C68.233,197.337,64.194,200,61.915,200z
			 M61.606,197.051c0.002,0,0.071,0.037,0.262,0.042c1.164-0.324,5.774-4.335,23.575-33.898
			c9.826-16.316,21.103-36.078,31.651-54.695c-3.435,4.681-6.921,9.474-10.393,14.3c-14.572,20.254-25.862,36.877-33.558,49.407
			C59.785,193.958,61.379,196.798,61.606,197.051L61.606,197.051z M312.107,85.078c-2.339,0-3.902,1.128-4.236,2.243
			c-0.194,0.647,0.066,1.212,0.774,1.679c1.499,0.99,3.461,1.225,5.673,0.955c0.048-0.484,0.072-0.942,0.072-1.371
			c0-1.26-0.216-2.227-0.623-2.797C313.53,85.456,313.129,85.078,312.107,85.078z M3.3,83.425c0.008,0.075,0.058,0.202,0.377,0.388
			c2.43,1.421,14.755,3.005,76.586-12.94c25.572-6.595,49.076-13.485,61.801-17.515c-36.113,4.872-76.622,12.034-103.878,18.384
			C5.994,79.24,3.493,82.927,3.3,83.425z M254.207,46.441c-0.968,0.395-3.037,1.696-6.869,5.926
			c-5.255,5.8-11.877,14.929-17.998,24.694C242.953,62.32,252.504,50.27,254.207,46.441z M326.789,2.907
			c-9.127,0-32.892,26.9-60.876,68.806c0.093-0.087,0.188-0.176,0.28-0.262c22.13-20.754,48.605-47.903,57.865-61.769
			c3.266-4.889,3.228-6.443,3.181-6.723C327.173,2.938,327.037,2.907,326.789,2.907z M153.042,52.627
			c-1.271,1.316-5.306,8.012-10.744,17.417c6.619-8.629,11.826-15.253,14.571-18.584c-0.978,0.119-1.972,0.24-2.982,0.366
			c-0.125,0.285-0.339,0.528-0.621,0.687C153.204,52.547,153.129,52.585,153.042,52.627z"/>
		<path fill="#030405" d="M260.346,38.726c-0.989,0-1.862-0.323-2.521-0.934c-1.215-1.125-1.441-2.969-0.623-5.06
			c1.076-2.745,3.804-5.584,6.508-5.584c0.98,0,1.882,0.371,2.606,1.072c1.481,1.435,1.872,3.395,1.069,5.376
			C266.28,36.33,262.99,38.726,260.346,38.726z M263.709,30.056c-1.179,0-3.062,1.851-3.802,3.737
			c-0.337,0.863-0.381,1.613-0.108,1.866c0.043,0.04,0.173,0.159,0.547,0.159c1.352,0,3.623-1.528,4.345-3.312
			c0.473-1.167-0.001-1.812-0.397-2.197C264.11,30.131,263.936,30.056,263.709,30.056z"/>
</svg>
